Coordinates
version=1
nRows=25
nColumns=33
inDegrees=yes

Units are S.I. units (second, meters, Newtons, ...)
Angles are in degrees.

endheader
time	ground_thorax_rot_x	ground_thorax_rot_y	ground_thorax_rot_z	ground_thorax_tx	ground_thorax_ty	ground_thorax_tz	clav_prot_r	clav_elev_r	scapula_abduction_r	scapula_elevation_r	scapula_upward_rot_r	scapula_winging_r	shoulder_elv_r	plane_of_elev_r	axial_rot_r	elbow_flexion_r	pro_sup_r	wrist_flex_r	wrist_dev_r	clav_prot_l	clav_elev_l	scapula_abduction_l	scapula_elevation_l	scapula_upward_rot_l	scapula_winging_l	shoulder_elv_l	plane_of_elev_l	axial_rot_l	elbow_flexion_l	pro_sup_l	wrist_flex_l	wrist_dev_l	
4.9900	39.212270	11.242930	11.477890	-99.056059	774.229569	12.282937	12.399486	40.101203	44.999675	38.467238	-11.047973	-1172.621929	-2821.881927	28.673163	58.524763	729.199595	20.031531	17.286418	12.198668	6.049433	-45.000000	-42.011507	45.000000	-38.163987	-635.775275	-3696.512963	134.059802	-180.000000	729.808587	43.887095	7.456296	-20.904896	
5.0000	38.886944	11.245565	11.963604	-99.687086	773.461193	10.495764	12.515031	40.063360	44.999417	38.590176	-11.770303	-1172.497244	-2821.767003	28.790932	58.319938	729.309888	19.858630	17.356968	12.193522	6.002824	-45.000000	-41.780627	45.000000	-38.289761	-635.342539	-3696.273419	134.022400	-180.000000	729.702419	45.525581	7.121309	-21.220591	
5.0100	38.626549	11.223167	12.352699	-100.454739	772.955953	8.899620	12.590364	40.031852	44.998956	38.719326	-12.342296	-1172.408610	-2821.660661	28.881505	58.143427	729.419054	19.727402	17.426805	12.176137	5.972751	-45.000000	-41.623358	45.000000	-38.296763	-634.929225	-3696.078328	134.002881	-180.000000	729.596238	46.557551	6.902959	-21.483368	
5.0200	38.538417	11.179806	12.550573	-101.541341	773.033408	7.849632	12.620838	40.062995	44.998130	38.881979	-12.674509	-1172.376394	-2821.574562	28.937167	57.994681	729.516324	19.648048	17.488042	12.144512	5.967594	-45.000000	-41.529528	45.000000	-38.225944	-634.611210	-3695.950495	133.997540	-180.000000	729.540458	46.478168	6.930766	-21.638265	
5.0300	38.591519	11.153011	12.626350	-102.938705	773.582625	7.265651	12.643600	40.141508	44.996651	39.086607	-12.886057	-1172.388105	-2821.507809	28.980860	57.846360	729.602515	19.604149	17.536238	12.097013	5.976907	-45.000000	-41.450904	45.000000	-38.212905	-634.391089	-3695.857964	134.003031	-180.000000	729.528644	45.512004	7.098936	-21.687581	
5.0400	38.765256	11.155922	12.622921	-104.626218	774.516689	7.077018	12.681468	40.290082	44.993999	39.339294	-13.054068	-1172.412418	-2821.448195	29.019462	57.675051	729.680090	19.582225	17.576155	12.038695	5.998186	-45.000000	-41.339752	45.000000	-38.329201	-634.267377	-3695.779956	134.008736	-180.000000	729.557886	43.907030	7.377447	-21.657314	
5.0500	38.943242	11.230592	12.711733	-106.431589	775.461880	6.904240	12.797003	40.489647	44.989255	39.639276	-13.435358	-1172.397391	-2821.378912	29.094976	57.431262	729.760762	19.553114	17.610685	11.969530	6.039770	-45.000000	-41.134652	45.000000	-38.694175	-634.183592	-3695.668457	134.016818	-180.000000	729.581084	42.338204	7.591725	-21.608081	
5.0600	39.122083	11.340898	12.852600	-108.331857	776.425365	6.741008	12.962232	40.728296	44.980741	39.960909	-13.953713	-1172.344712	-2821.287374	29.197695	57.112144	729.842769	19.517431	17.644722	11.898594	6.081269	-45.000000	-40.857927	45.000000	-39.215288	-634.122330	-3695.525362	134.017931	-180.000000	729.606325	40.906974	7.770359	-21.561270	
5.0700	39.300148	11.490770	13.049361	-110.310835	777.410841	6.582927	13.182263	40.980498	44.965531	40.302188	-14.609408	-1172.262147	-2821.177944	29.331065	56.720802	729.920960	19.475215	17.675667	11.824028	6.131187	-45.000000	-40.518903	45.000000	-39.889230	-634.076922	-3695.347841	134.007896	-180.000000	729.641046	39.648808	7.897227	-21.516973	
5.0800	39.474011	11.624935	13.224242	-112.358148	778.419123	6.427215	13.383838	41.201255	44.938176	40.634212	-15.234516	-1172.166884	-2821.056974	29.459731	56.290984	729.994018	19.429418	17.708028	11.759075	6.151855	-45.000000	-40.185742	45.000000	-40.542540	-634.015361	-3695.170528	133.990776	-180.000000	729.691573	38.637046	7.980736	-21.492453	
5.0900	39.645697	11.753360	13.383078	-114.465019	779.450236	6.271413	13.569629	41.400067	44.889481	40.966762	-15.827390	-1172.061891	-2820.933871	29.582591	55.850051	730.063141	19.378138	17.740453	11.700451	6.172179	-45.000000	-39.868831	45.000000	-41.173715	-633.939263	-3694.999004	133.973729	-180.000000	729.763020	37.866430	8.015244	-21.484234	
5.1000	39.813221	11.874909	13.517118	-116.623143	780.504003	6.113210	13.708060	41.592275	44.801397	41.296772	-16.345340	-1171.945463	-2820.807770	29.692704	55.426669	730.132788	19.317301	17.773424	11.652916	6.185982	-45.000000	-39.583412	45.000000	-41.751817	-633.850185	-3694.837943	133.965875	-180.000000	729.857081	37.366881	7.997504	-21.492401	
5.1100	39.981216	12.030530	13.672331	-118.823677	781.580842	5.950082	13.845574	41.803797	44.646007	41.653833	-16.892691	-1171.786006	-2820.677736	29.818982	54.998323	730.197991	19.235851	17.804990	11.608809	6.232140	-45.000000	-39.287100	45.000000	-42.393461	-633.768767	-3694.657010	133.949866	-180.000000	729.971577	37.088792	7.940891	-21.511997	
5.1200	40.136628	12.209399	13.846095	-121.059154	782.680868	5.780069	13.963129	41.993630	44.423994	42.017544	-17.468289	-1171.571337	-2820.528751	29.957086	54.536375	730.259196	19.123059	17.835892	11.572500	6.274997	-45.000000	-39.005987	45.000000	-43.024702	-633.671034	-3694.481558	133.939639	-180.000000	730.090608	36.987088	7.862505	-21.544781	
5.1300	40.285012	12.407065	14.036329	-123.323268	783.804124	5.601798	14.083816	42.190808	44.148783	42.393279	-18.085881	-1171.310332	-2820.368913	30.113477	54.025890	730.310929	18.974264	17.863944	11.543998	6.339575	-45.000000	-38.733714	45.000000	-43.657782	-633.570217	-3694.308985	133.937886	-180.000000	730.206045	36.966974	7.779765	-21.581317	
5.1400	40.415662	12.596520	14.222605	-125.610324	784.950648	5.414708	14.191919	42.354593	43.858476	42.752910	-18.732954	-1171.025791	-2820.189294	30.278974	53.471076	730.359004	18.784460	17.891175	11.524061	6.392563	-45.000000	-38.487960	45.000000	-44.219880	-633.443594	-3694.149547	133.944344	-180.000000	730.308216	36.980956	7.708468	-21.623867	
5.1500	40.535316	12.745261	14.362889	-127.915078	786.120812	5.219162	14.287220	42.472438	43.571203	43.087722	-19.350758	-1170.748812	-2820.004482	30.451934	52.882901	730.401135	18.551964	17.918053	11.514467	6.435075	-45.000000	-38.285130	45.000000	-44.671836	-633.290513	-3694.004751	133.950947	-180.000000	730.404173	36.985919	7.657175	-21.673781	
5.1600	40.636244	12.824127	14.424861	-130.231935	787.315319	5.016626	14.336492	42.522466	43.320716	43.366196	-19.866821	-1170.513549	-2819.813420	30.605961	52.294855	730.440416	18.278738	17.945316	11.520538	6.441474	-45.000000	-38.159145	45.000000	-44.920429	-633.095487	-3693.895186	133.969190	-180.000000	730.485002	36.969482	7.627355	-21.730547	
5.1700	40.733753	12.831590	14.397408	-132.555524	788.535361	4.809714	14.336476	42.571960	43.107229	43.604202	-20.228352	-1170.342979	-2819.637653	30.734557	51.756732	730.477390	17.970151	17.970543	11.543270	6.447274	-45.000000	-38.106493	45.000000	-44.990569	-632.887889	-3693.818112	134.007924	-180.000000	730.559341	36.925165	7.606897	-21.783735	
5.1800	40.826590	12.811180	14.338828	-134.880334	789.782256	4.602116	14.318113	42.633588	42.927810	43.820972	-20.538986	-1170.217628	-2819.470918	30.847482	51.272090	730.515962	17.622620	17.993591	11.572866	6.466619	-45.000000	-38.075664	45.000000	-45.000000	-632.679837	-3693.744568	134.050663	-180.000000	730.624497	36.850181	7.593232	-21.830511	
5.1900	40.920795	12.778388	14.266644	-137.201227	791.057356	4.398236	14.296972	42.709046	42.754722	44.034614	-20.824116	-1170.113207	-2819.313118	30.958948	50.818475	730.552410	17.232041	18.013688	11.605269	6.503345	-45.000000	-38.052228	45.000000	-45.000000	-632.478471	-3693.669985	134.092026	-180.000000	730.688212	36.749572	7.583201	-21.873342	
5.2000	41.009287	12.742374	14.197925	-139.513201	792.361455	4.202671	14.277055	42.767034	42.587188	44.240396	-21.105409	-1170.014779	-2819.154587	31.064274	50.377802	730.583969	16.797838	18.031455	11.636673	6.541560	-45.000000	-38.027714	45.000000	-45.000000	-632.272215	-3693.594971	134.126931	-180.000000	730.745633	36.632612	7.576011	-21.915993	
5.2100	41.095807	12.701885	14.135786	-141.811756	793.694466	4.019551	14.260528	42.822026	42.422648	44.443583	-21.383129	-1169.917730	-2818.996785	31.167501	49.948427	730.610600	16.323173	18.045843	11.663690	6.587331	-45.000000	-38.005438	45.000000	-45.000000	-632.064648	-3693.527547	134.165280	-180.000000	730.801676	36.511845	7.567096	-21.958365	
5.2200	41.173894	12.651165	14.073217	-144.092799	795.054975	3.851992	14.245580	42.846189	42.271976	44.626881	-21.661753	-1169.831518	-2818.833120	31.269817	49.528389	730.634065	15.813704	18.057811	11.682521	6.631792	-45.000000	-37.987602	45.000000	-45.000000	-631.845719	-3693.454806	134.191318	-180.000000	730.859102	36.400877	7.557238	-22.005011	
5.2300	41.242359	12.587627	14.007510	-146.352793	796.440053	3.701721	14.230102	42.832978	42.140964	44.778238	-21.930942	-1169.766884	-2818.660605	31.371147	49.124037	730.654371	15.277731	18.067705	11.690576	6.673080	-45.000000	-37.981930	45.000000	-45.000000	-631.614031	-3693.376622	134.206605	-180.000000	730.923131	36.312309	7.544235	-22.057939	
